<svg width="120" height="120" viewBox="0 0 120 120" fill="none" xmlns="http://www.w3.org/2000/svg">
<g clip-path="url(#clip0_1054_8)">
<rect width="120" height="120" rx="60" fill="#DCD8FD"/>
<path d="M115.92 51.875H111.268C111.263 51.875 111.258 51.8769 111.255 51.8801C111.252 51.8834 111.25 51.8879 111.25 51.8926V111.25C111.25 112.908 111.908 114.497 113.081 115.669C114.253 116.842 115.842 117.5 117.5 117.5C119.158 117.5 120.747 116.842 121.919 115.669C123.092 114.497 123.75 112.908 123.75 111.25V59.7051C123.75 57.6284 122.925 55.6368 121.457 54.1684C119.988 52.7 117.997 51.875 115.92 51.875Z" fill="#1A0AD7"/>
<path d="M105 111.25V44.0625C105 43.0365 104.798 42.0206 104.405 41.0728C104.013 40.1249 103.437 39.2637 102.712 38.5382C101.986 37.8128 101.125 37.2373 100.177 36.8447C99.2294 36.4521 98.2135 36.25 97.1875 36.25H44.0625C41.9905 36.25 40.0034 37.0731 38.5382 38.5382C37.0731 40.0034 36.25 41.9905 36.25 44.0625V112.812C36.25 115.713 37.4023 118.495 39.4535 120.546C41.5047 122.598 44.2867 123.75 47.1875 123.75H114.15C114.18 123.75 114.209 123.745 114.237 123.733C114.264 123.722 114.289 123.706 114.31 123.685C114.331 123.664 114.347 123.639 114.358 123.612C114.37 123.584 114.375 123.555 114.375 123.525C114.375 123.476 114.359 123.429 114.329 123.39C114.299 123.351 114.256 123.323 114.209 123.311C111.565 122.585 109.233 121.013 107.569 118.834C105.906 116.656 105.003 113.991 105 111.25ZM48.75 55C48.75 54.1712 49.0792 53.3763 49.6653 52.7903C50.2513 52.2042 51.0462 51.875 51.875 51.875H64.375C65.2038 51.875 65.9987 52.2042 66.5847 52.7903C67.1708 53.3763 67.5 54.1712 67.5 55V67.5C67.5 68.3288 67.1708 69.1237 66.5847 69.7097C65.9987 70.2958 65.2038 70.625 64.375 70.625H51.875C51.0462 70.625 50.2513 70.2958 49.6653 69.7097C49.0792 69.1237 48.75 68.3288 48.75 67.5V55ZM89.375 108.125H51.9629C50.2812 108.125 48.8379 106.832 48.7539 105.15C48.7335 104.728 48.7992 104.306 48.9468 103.909C49.0945 103.513 49.3211 103.15 49.6129 102.844C49.9048 102.538 50.2557 102.294 50.6445 102.128C51.0334 101.961 51.452 101.875 51.875 101.875H89.2871C90.9687 101.875 92.4121 103.168 92.4961 104.85C92.5165 105.272 92.4508 105.694 92.3032 106.091C92.1555 106.487 91.9289 106.85 91.6371 107.156C91.3452 107.462 90.9943 107.706 90.6055 107.872C90.2166 108.039 89.798 108.125 89.375 108.125ZM89.375 95.625H51.9629C50.2812 95.625 48.8379 94.332 48.7539 92.6504C48.7335 92.2279 48.7992 91.8056 48.9468 91.4092C49.0945 91.0128 49.3211 90.6505 49.6129 90.3442C49.9048 90.038 50.2557 89.7942 50.6445 89.6276C51.0334 89.461 51.452 89.375 51.875 89.375H89.2871C90.9687 89.375 92.4121 90.668 92.4961 92.3496C92.5165 92.7721 92.4508 93.1944 92.3032 93.5908C92.1555 93.9872 91.9289 94.3495 91.6371 94.6558C91.3452 94.962 90.9943 95.2058 90.6055 95.3724C90.2166 95.539 89.798 95.625 89.375 95.625ZM89.375 83.125H51.9629C50.2812 83.125 48.8379 81.832 48.7539 80.1504C48.7335 79.7279 48.7992 79.3056 48.9468 78.9092C49.0945 78.5128 49.3211 78.1505 49.6129 77.8442C49.9048 77.538 50.2557 77.2942 50.6445 77.1276C51.0334 76.961 51.452 76.875 51.875 76.875H89.2871C90.9687 76.875 92.4121 78.168 92.4961 79.8496C92.5165 80.2721 92.4508 80.6944 92.3032 81.0908C92.1555 81.4872 91.9289 81.8495 91.6371 82.1558C91.3452 82.462 90.9943 82.7058 90.6055 82.8724C90.2166 83.039 89.798 83.125 89.375 83.125ZM89.375 70.625H76.9629C75.2812 70.625 73.8379 69.332 73.7539 67.6504C73.7336 67.2279 73.7992 66.8056 73.9468 66.4092C74.0945 66.0128 74.3211 65.6505 74.6129 65.3442C74.9048 65.038 75.2557 64.7942 75.6445 64.6276C76.0334 64.461 76.452 64.375 76.875 64.375H89.2871C90.9687 64.375 92.4121 65.668 92.4961 67.3496C92.5165 67.7721 92.4508 68.1944 92.3032 68.5908C92.1555 68.9872 91.9289 69.3495 91.6371 69.6558C91.3452 69.962 90.9943 70.2058 90.6055 70.3724C90.2166 70.539 89.798 70.625 89.375 70.625ZM89.375 58.125H76.9629C75.2812 58.125 73.8379 56.832 73.7539 55.1504C73.7336 54.7279 73.7992 54.3056 73.9468 53.9092C74.0945 53.5128 74.3211 53.1505 74.6129 52.8442C74.9048 52.538 75.2557 52.2942 75.6445 52.1276C76.0334 51.961 76.452 51.875 76.875 51.875H89.2871C90.9687 51.875 92.4121 53.168 92.4961 54.8496C92.5165 55.2721 92.4508 55.6944 92.3032 56.0908C92.1555 56.4872 91.9289 56.8495 91.6371 57.1558C91.3452 57.462 90.9943 57.7058 90.6055 57.8724C90.2166 58.039 89.798 58.125 89.375 58.125Z" fill="#1A0AD7"/>
</g>
<rect x="0.5" y="0.5" width="119" height="119" rx="59.5" stroke="#1A0AD7"/>
<defs>
<clipPath id="clip0_1054_8">
<rect width="120" height="120" rx="60" fill="white"/>
</clipPath>
</defs>
</svg>
