<svg width="134" height="39" viewBox="0 0 134 39" fill="none" xmlns="http://www.w3.org/2000/svg">
<path d="M2 36.963V2H24C29.5228 2 34 6.47715 34 12V36.963H2Z" stroke="#4435F6" stroke-width="4"/>
<path d="M9 27.4814V11.4814H25" stroke="#4435F6" stroke-width="4"/>
<path d="M26 13.4814V29.4814H10" stroke="#4435F6" stroke-width="4"/>
<path d="M49.072 12.9814H51.28V24.9814H49.072V24.0054C48.8267 24.3788 48.48 24.6614 48.032 24.8534C47.584 25.0454 47.0827 25.1414 46.528 25.1414C45.984 25.1414 45.472 25.0508 44.992 24.8694C44.5227 24.6774 44.112 24.4001 43.76 24.0374C43.408 23.6748 43.1253 23.2374 42.912 22.7254C42.7093 22.2028 42.608 21.6161 42.608 20.9654C42.608 20.3041 42.7093 19.7174 42.912 19.2054C43.1253 18.6828 43.408 18.2401 43.76 17.8774C44.112 17.5148 44.5227 17.2374 44.992 17.0454C45.472 16.8534 45.984 16.7574 46.528 16.7574C47.0827 16.7574 47.584 16.8588 48.032 17.0614C48.48 17.2534 48.8267 17.5361 49.072 17.9094V12.9814ZM47.008 23.3014C47.6267 23.3014 48.1387 23.0988 48.544 22.6934C48.96 22.2774 49.168 21.7014 49.168 20.9654C49.168 20.2294 48.96 19.6481 48.544 19.2214C48.1387 18.7948 47.6267 18.5814 47.008 18.5814C46.3787 18.5814 45.856 18.7948 45.44 19.2214C45.0347 19.6481 44.832 20.2294 44.832 20.9654C44.832 21.7014 45.0347 22.2774 45.44 22.6934C45.856 23.0988 46.3787 23.3014 47.008 23.3014ZM57.2896 25.1414C56.639 25.1414 56.0416 25.0454 55.4976 24.8534C54.9643 24.6508 54.5003 24.3681 54.1056 24.0054C53.7216 23.6428 53.4176 23.2054 53.1936 22.6934C52.9803 22.1708 52.8736 21.5841 52.8736 20.9334C52.8736 20.2934 52.9803 19.7174 53.1936 19.2054C53.4176 18.6828 53.7216 18.2454 54.1056 17.8934C54.5003 17.5308 54.9643 17.2534 55.4976 17.0614C56.0416 16.8588 56.639 16.7574 57.2896 16.7574C57.9403 16.7574 58.5376 16.8588 59.0816 17.0614C59.6256 17.2534 60.0896 17.5308 60.4736 17.8934C60.8683 18.2454 61.1723 18.6828 61.3856 19.2054C61.6096 19.7174 61.7216 20.2934 61.7216 20.9334C61.7216 21.5841 61.6096 22.1708 61.3856 22.6934C61.1723 23.2054 60.8683 23.6428 60.4736 24.0054C60.0896 24.3681 59.6256 24.6508 59.0816 24.8534C58.5376 25.0454 57.9403 25.1414 57.2896 25.1414ZM57.2896 23.3814C57.9616 23.3814 58.495 23.1574 58.8896 22.7094C59.295 22.2614 59.4976 21.6694 59.4976 20.9334C59.4976 20.2188 59.295 19.6374 58.8896 19.1894C58.495 18.7414 57.9616 18.5174 57.2896 18.5174C56.6176 18.5174 56.079 18.7414 55.6736 19.1894C55.279 19.6374 55.0816 20.2188 55.0816 20.9334C55.0816 21.6694 55.279 22.2614 55.6736 22.7094C56.079 23.1574 56.6176 23.3814 57.2896 23.3814ZM67.2725 25.1414C66.6325 25.1414 66.0458 25.0401 65.5125 24.8374C64.9792 24.6348 64.5205 24.3468 64.1365 23.9734C63.7525 23.6001 63.4538 23.1574 63.2405 22.6454C63.0272 22.1228 62.9205 21.5521 62.9205 20.9334C62.9205 20.3148 63.0272 19.7494 63.2405 19.2374C63.4538 18.7254 63.7525 18.2881 64.1365 17.9254C64.5205 17.5521 64.9792 17.2641 65.5125 17.0614C66.0458 16.8588 66.6325 16.7574 67.2725 16.7574C68.3072 16.7574 69.1765 17.0134 69.8805 17.5254C70.5952 18.0374 71.0485 18.7788 71.2405 19.7494L69.1925 19.9414C69.0752 19.4508 68.8458 19.0881 68.5045 18.8534C68.1738 18.6081 67.7525 18.4854 67.2405 18.4854C66.6005 18.4854 66.0885 18.7148 65.7045 19.1734C65.3205 19.6214 65.1285 20.2081 65.1285 20.9334C65.1285 21.6694 65.3205 22.2668 65.7045 22.7254C66.0885 23.1734 66.6005 23.3974 67.2405 23.3974C67.7525 23.3974 68.1738 23.2801 68.5045 23.0454C68.8458 22.8001 69.0752 22.4321 69.1925 21.9414L71.2405 22.1334C71.1445 22.6134 70.9792 23.0401 70.7445 23.4134C70.5098 23.7868 70.2165 24.1014 69.8645 24.3574C69.5232 24.6134 69.1285 24.8108 68.6805 24.9494C68.2432 25.0774 67.7738 25.1414 67.2725 25.1414ZM78.3405 16.9174H80.5645V24.9814H78.3405V24.0534C78.0525 24.3948 77.6898 24.6614 77.2525 24.8534C76.8152 25.0454 76.3245 25.1414 75.7805 25.1414C74.7565 25.1414 73.9885 24.8961 73.4765 24.4054C72.9645 23.9041 72.7085 23.2054 72.7085 22.3094V16.9174H74.9165V21.8454C74.9165 22.3894 75.0605 22.7788 75.3485 23.0134C75.6472 23.2481 76.0205 23.3654 76.4685 23.3654C76.7138 23.3654 76.9485 23.3334 77.1725 23.2694C77.3965 23.1948 77.5938 23.0774 77.7645 22.9174C77.9352 22.7468 78.0738 22.5334 78.1805 22.2774C78.2872 22.0108 78.3405 21.6854 78.3405 21.3014V16.9174ZM87.4505 16.7574C88.3998 16.7574 89.1252 17.0134 89.6265 17.5254C90.1385 18.0374 90.3945 18.8054 90.3945 19.8294V24.9814H88.1705V20.1654C88.1705 19.5681 88.0265 19.1468 87.7385 18.9014C87.4505 18.6454 87.0718 18.5174 86.6025 18.5174C86.3785 18.5174 86.1545 18.5494 85.9305 18.6134C85.7172 18.6774 85.5198 18.7894 85.3385 18.9494C85.1678 19.1094 85.0292 19.3228 84.9225 19.5894C84.8158 19.8561 84.7625 20.1921 84.7625 20.5974V24.9814H82.5385V12.9814H84.7625V17.9254C85.0612 17.5628 85.4345 17.2801 85.8825 17.0774C86.3305 16.8641 86.8532 16.7574 87.4505 16.7574ZM100.193 21.3974H94.0649C94.1182 22.0481 94.3422 22.5441 94.7369 22.8854C95.1315 23.2268 95.6169 23.3974 96.1929 23.3974C96.6195 23.3974 96.9875 23.3068 97.2969 23.1254C97.6169 22.9441 97.8515 22.6668 98.0009 22.2934L100.049 22.5654C99.7822 23.3974 99.3075 24.0374 98.6249 24.4854C97.9422 24.9228 97.1369 25.1414 96.2089 25.1414C95.5475 25.1414 94.9502 25.0454 94.4169 24.8534C93.8835 24.6614 93.4249 24.3841 93.0409 24.0214C92.6675 23.6588 92.3795 23.2214 92.1769 22.7094C91.9742 22.1868 91.8729 21.6001 91.8729 20.9494C91.8729 20.2988 91.9742 19.7174 92.1769 19.2054C92.3902 18.6828 92.6835 18.2401 93.0569 17.8774C93.4409 17.5148 93.8942 17.2374 94.4169 17.0454C94.9395 16.8534 95.5155 16.7574 96.1449 16.7574C96.7209 16.7574 97.2542 16.8428 97.7449 17.0134C98.2462 17.1734 98.6782 17.4241 99.0409 17.7654C99.4035 18.1068 99.6862 18.5388 99.8889 19.0614C100.102 19.5734 100.209 20.1814 100.209 20.8854L100.193 21.3974ZM96.1449 18.3894C95.5902 18.3894 95.1369 18.5281 94.7849 18.8054C94.4435 19.0828 94.2195 19.4934 94.1129 20.0374H98.0169C97.9635 19.5148 97.7662 19.1094 97.4249 18.8214C97.0835 18.5334 96.6569 18.3894 96.1449 18.3894ZM101.773 24.9814V12.9814H103.997V24.9814H101.773ZM110.697 16.7574C111.241 16.7574 111.747 16.8534 112.217 17.0454C112.697 17.2268 113.113 17.4988 113.465 17.8614C113.817 18.2241 114.094 18.6614 114.297 19.1734C114.51 19.6854 114.617 20.2721 114.617 20.9334C114.617 21.5841 114.51 22.1708 114.297 22.6934C114.094 23.2161 113.817 23.6588 113.465 24.0214C113.113 24.3841 112.697 24.6614 112.217 24.8534C111.747 25.0454 111.241 25.1414 110.697 25.1414C110.153 25.1414 109.657 25.0454 109.209 24.8534C108.761 24.6614 108.414 24.3788 108.169 24.0054V28.8694H105.945V16.9174H108.169V17.8614C108.414 17.4988 108.761 17.2268 109.209 17.0454C109.657 16.8534 110.153 16.7574 110.697 16.7574ZM110.233 23.3014C110.851 23.3014 111.363 23.0934 111.769 22.6774C112.185 22.2508 112.393 21.6694 112.393 20.9334C112.393 20.1974 112.185 19.6214 111.769 19.2054C111.363 18.7894 110.851 18.5814 110.233 18.5814C109.603 18.5814 109.086 18.7894 108.681 19.2054C108.275 19.6214 108.073 20.1974 108.073 20.9334C108.073 21.6694 108.275 22.2508 108.681 22.6774C109.086 23.0934 109.603 23.3014 110.233 23.3014ZM117.762 25.1414C117.421 25.1414 117.122 25.0188 116.866 24.7734C116.621 24.5174 116.498 24.2134 116.498 23.8614C116.498 23.5201 116.621 23.2214 116.866 22.9654C117.122 22.7094 117.421 22.5814 117.762 22.5814C118.114 22.5814 118.418 22.7094 118.674 22.9654C118.93 23.2214 119.058 23.5201 119.058 23.8614C119.058 24.2134 118.93 24.5174 118.674 24.7734C118.418 25.0188 118.114 25.1414 117.762 25.1414ZM128.392 23.5254C128.392 23.7708 128.397 24.0001 128.408 24.2134C128.419 24.4161 128.461 24.6028 128.536 24.7734V24.9814H126.344L126.248 23.8774C125.971 24.3041 125.581 24.6241 125.08 24.8374C124.589 25.0401 124.077 25.1414 123.544 25.1414C123.224 25.1414 122.904 25.1041 122.584 25.0294C122.275 24.9548 121.992 24.8321 121.736 24.6614C121.491 24.4801 121.293 24.2508 121.144 23.9734C120.995 23.6961 120.92 23.3548 120.92 22.9494C120.92 22.5014 121.011 22.1281 121.192 21.8294C121.373 21.5201 121.608 21.2641 121.896 21.0614C122.184 20.8588 122.509 20.6988 122.872 20.5814C123.235 20.4641 123.597 20.3681 123.96 20.2934L125.432 19.9574C125.645 19.9041 125.821 19.8401 125.96 19.7654C126.099 19.6908 126.168 19.5574 126.168 19.3654C126.168 18.9921 126.024 18.7254 125.736 18.5654C125.459 18.4054 125.133 18.3254 124.76 18.3254C124.312 18.3254 123.944 18.4321 123.656 18.6454C123.368 18.8481 123.181 19.1521 123.096 19.5574L120.968 19.2374C121.149 18.3734 121.576 17.7441 122.248 17.3494C122.92 16.9548 123.768 16.7574 124.792 16.7574C125.965 16.7574 126.856 17.0081 127.464 17.5094C128.083 18.0108 128.392 18.7468 128.392 19.7174V23.5254ZM124.2 23.6054C124.467 23.6054 124.723 23.5521 124.968 23.4454C125.224 23.3388 125.448 23.1841 125.64 22.9814C125.843 22.7681 126.003 22.5068 126.12 22.1974C126.237 21.8774 126.296 21.5094 126.296 21.0934L124.312 21.6054C124.003 21.6694 123.725 21.7868 123.48 21.9574C123.245 22.1174 123.128 22.3681 123.128 22.7094C123.128 23.0081 123.229 23.2321 123.432 23.3814C123.635 23.5308 123.891 23.6054 124.2 23.6054ZM131.409 15.6694C131.046 15.6694 130.737 15.5468 130.481 15.3014C130.235 15.0561 130.113 14.7521 130.113 14.3894C130.113 14.0374 130.235 13.7388 130.481 13.4934C130.737 13.2481 131.046 13.1254 131.409 13.1254C131.75 13.1254 132.043 13.2481 132.289 13.4934C132.545 13.7388 132.673 14.0374 132.673 14.3894C132.673 14.7521 132.545 15.0561 132.289 15.3014C132.043 15.5468 131.75 15.6694 131.409 15.6694ZM130.273 24.9814V16.9174H132.497V24.9814H130.273Z" fill="#4435F6"/>
</svg>
