<svg width="207" height="71" viewBox="0 0 207 71" fill="none" xmlns="http://www.w3.org/2000/svg">
<path d="M4 66.2778V4H47C54.732 4 61 10.268 61 18V66.2778H4Z" stroke="#4435F6" stroke-width="8"/>
<path d="M16.4688 49.3884V20.8884H44.9688" stroke="#4435F6" stroke-width="8"/>
<path d="M46.75 24.4509V52.9509H18.25" stroke="#4435F6" stroke-width="8"/>
<path d="M79.608 25.6389H82.92V43.6389H79.608V42.1749C79.24 42.7349 78.72 43.1589 78.048 43.4469C77.376 43.7349 76.624 43.8789 75.792 43.8789C74.976 43.8789 74.208 43.7429 73.488 43.4709C72.784 43.1829 72.168 42.7669 71.64 42.2229C71.112 41.6789 70.688 41.0229 70.368 40.2549C70.064 39.4709 69.912 38.5909 69.912 37.6149C69.912 36.6229 70.064 35.7429 70.368 34.9749C70.688 34.1909 71.112 33.5269 71.64 32.9829C72.168 32.4389 72.784 32.0229 73.488 31.7349C74.208 31.4469 74.976 31.3029 75.792 31.3029C76.624 31.3029 77.376 31.4549 78.048 31.7589C78.72 32.0469 79.24 32.4709 79.608 33.0309V25.6389ZM76.512 41.1189C77.44 41.1189 78.208 40.8149 78.816 40.2069C79.44 39.5829 79.752 38.7189 79.752 37.6149C79.752 36.5109 79.44 35.6389 78.816 34.9989C78.208 34.3589 77.44 34.0389 76.512 34.0389C75.568 34.0389 74.784 34.3589 74.16 34.9989C73.552 35.6389 73.248 36.5109 73.248 37.6149C73.248 38.7189 73.552 39.5829 74.16 40.2069C74.784 40.8149 75.568 41.1189 76.512 41.1189ZM91.9344 43.8789C90.9584 43.8789 90.0624 43.7349 89.2464 43.4469C88.4464 43.1429 87.7504 42.7189 87.1584 42.1749C86.5824 41.6309 86.1264 40.9749 85.7904 40.2069C85.4704 39.4229 85.3104 38.5429 85.3104 37.5669C85.3104 36.6069 85.4704 35.7429 85.7904 34.9749C86.1264 34.1909 86.5824 33.5349 87.1584 33.0069C87.7504 32.4629 88.4464 32.0469 89.2464 31.7589C90.0624 31.4549 90.9584 31.3029 91.9344 31.3029C92.9104 31.3029 93.8064 31.4549 94.6224 31.7589C95.4384 32.0469 96.1344 32.4629 96.7104 33.0069C97.3024 33.5349 97.7584 34.1909 98.0784 34.9749C98.4144 35.7429 98.5824 36.6069 98.5824 37.5669C98.5824 38.5429 98.4144 39.4229 98.0784 40.2069C97.7584 40.9749 97.3024 41.6309 96.7104 42.1749C96.1344 42.7189 95.4384 43.1429 94.6224 43.4469C93.8064 43.7349 92.9104 43.8789 91.9344 43.8789ZM91.9344 41.2389C92.9424 41.2389 93.7424 40.9029 94.3344 40.2309C94.9424 39.5589 95.2464 38.6709 95.2464 37.5669C95.2464 36.4949 94.9424 35.6229 94.3344 34.9509C93.7424 34.2789 92.9424 33.9429 91.9344 33.9429C90.9264 33.9429 90.1184 34.2789 89.5104 34.9509C88.9184 35.6229 88.6224 36.4949 88.6224 37.5669C88.6224 38.6709 88.9184 39.5589 89.5104 40.2309C90.1184 40.9029 90.9264 41.2389 91.9344 41.2389ZM106.909 43.8789C105.949 43.8789 105.069 43.7269 104.269 43.4229C103.469 43.1189 102.781 42.6869 102.205 42.1269C101.629 41.5669 101.181 40.9029 100.861 40.1349C100.541 39.3509 100.381 38.4949 100.381 37.5669C100.381 36.6389 100.541 35.7909 100.861 35.0229C101.181 34.2549 101.629 33.5989 102.205 33.0549C102.781 32.4949 103.469 32.0629 104.269 31.7589C105.069 31.4549 105.949 31.3029 106.909 31.3029C108.461 31.3029 109.765 31.6869 110.821 32.4549C111.893 33.2229 112.573 34.3349 112.861 35.7909L109.789 36.0789C109.613 35.3429 109.269 34.7989 108.757 34.4469C108.261 34.0789 107.629 33.8949 106.861 33.8949C105.901 33.8949 105.133 34.2389 104.557 34.9269C103.981 35.5989 103.693 36.4789 103.693 37.5669C103.693 38.6709 103.981 39.5669 104.557 40.2549C105.133 40.9269 105.901 41.2629 106.861 41.2629C107.629 41.2629 108.261 41.0869 108.757 40.7349C109.269 40.3669 109.613 39.8149 109.789 39.0789L112.861 39.3669C112.717 40.0869 112.469 40.7269 112.117 41.2869C111.765 41.8469 111.325 42.3189 110.797 42.7029C110.285 43.0869 109.693 43.3829 109.021 43.5909C108.365 43.7829 107.661 43.8789 106.909 43.8789ZM123.511 31.5429H126.847V43.6389H123.511V42.2469C123.079 42.7589 122.535 43.1589 121.879 43.4469C121.223 43.7349 120.487 43.8789 119.671 43.8789C118.135 43.8789 116.983 43.5109 116.215 42.7749C115.447 42.0229 115.063 40.9749 115.063 39.6309V31.5429H118.375V38.9349C118.375 39.7509 118.591 40.3349 119.023 40.6869C119.471 41.0389 120.031 41.2149 120.703 41.2149C121.071 41.2149 121.423 41.1669 121.759 41.0709C122.095 40.9589 122.391 40.7829 122.647 40.5429C122.903 40.2869 123.111 39.9669 123.271 39.5829C123.431 39.1829 123.511 38.6949 123.511 38.1189V31.5429ZM137.176 31.3029C138.6 31.3029 139.688 31.6869 140.44 32.4549C141.208 33.2229 141.592 34.3749 141.592 35.9109V43.6389H138.256V36.4149C138.256 35.5189 138.04 34.8869 137.608 34.5189C137.176 34.1349 136.608 33.9429 135.904 33.9429C135.568 33.9429 135.232 33.9909 134.896 34.0869C134.576 34.1829 134.28 34.3509 134.008 34.5909C133.752 34.8309 133.544 35.1509 133.384 35.5509C133.224 35.9509 133.144 36.4549 133.144 37.0629V43.6389H129.808V25.6389H133.144V33.0549C133.592 32.5109 134.152 32.0869 134.824 31.7829C135.496 31.4629 136.28 31.3029 137.176 31.3029ZM156.289 38.2629H147.097C147.177 39.2389 147.513 39.9829 148.105 40.4949C148.697 41.0069 149.425 41.2629 150.289 41.2629C150.929 41.2629 151.481 41.1269 151.945 40.8549C152.425 40.5829 152.777 40.1669 153.001 39.6069L156.073 40.0149C155.673 41.2629 154.961 42.2229 153.937 42.8949C152.913 43.5509 151.705 43.8789 150.313 43.8789C149.321 43.8789 148.425 43.7349 147.625 43.4469C146.825 43.1589 146.137 42.7429 145.561 42.1989C145.001 41.6549 144.569 40.9989 144.265 40.2309C143.961 39.4469 143.809 38.5669 143.809 37.5909C143.809 36.6149 143.961 35.7429 144.265 34.9749C144.585 34.1909 145.025 33.5269 145.585 32.9829C146.161 32.4389 146.841 32.0229 147.625 31.7349C148.409 31.4469 149.273 31.3029 150.217 31.3029C151.081 31.3029 151.881 31.4309 152.617 31.6869C153.369 31.9269 154.017 32.3029 154.561 32.8149C155.105 33.3269 155.529 33.9749 155.833 34.7589C156.153 35.5269 156.313 36.4389 156.313 37.4949L156.289 38.2629ZM150.217 33.7509C149.385 33.7509 148.705 33.9589 148.177 34.3749C147.665 34.7909 147.329 35.4069 147.169 36.2229H153.025C152.945 35.4389 152.649 34.8309 152.137 34.3989C151.625 33.9669 150.985 33.7509 150.217 33.7509ZM158.659 43.6389V25.6389H161.995V43.6389H158.659ZM172.045 31.3029C172.861 31.3029 173.621 31.4469 174.325 31.7349C175.045 32.0069 175.669 32.4149 176.197 32.9589C176.725 33.5029 177.141 34.1589 177.445 34.9269C177.765 35.6949 177.925 36.5749 177.925 37.5669C177.925 38.5429 177.765 39.4229 177.445 40.2069C177.141 40.9909 176.725 41.6549 176.197 42.1989C175.669 42.7429 175.045 43.1589 174.325 43.4469C173.621 43.7349 172.861 43.8789 172.045 43.8789C171.229 43.8789 170.485 43.7349 169.813 43.4469C169.141 43.1589 168.621 42.7349 168.253 42.1749V49.4709H164.917V31.5429H168.253V32.9589C168.621 32.4149 169.141 32.0069 169.813 31.7349C170.485 31.4469 171.229 31.3029 172.045 31.3029ZM171.349 41.1189C172.277 41.1189 173.045 40.8069 173.653 40.1829C174.277 39.5429 174.589 38.6709 174.589 37.5669C174.589 36.4629 174.277 35.5989 173.653 34.9749C173.045 34.3509 172.277 34.0389 171.349 34.0389C170.405 34.0389 169.629 34.3509 169.021 34.9749C168.413 35.5989 168.109 36.4629 168.109 37.5669C168.109 38.6709 168.413 39.5429 169.021 40.1829C169.629 40.8069 170.405 41.1189 171.349 41.1189ZM182.644 43.8789C182.132 43.8789 181.684 43.6949 181.3 43.3269C180.932 42.9429 180.748 42.4869 180.748 41.9589C180.748 41.4469 180.932 40.9989 181.3 40.6149C181.684 40.2309 182.132 40.0389 182.644 40.0389C183.172 40.0389 183.628 40.2309 184.012 40.6149C184.396 40.9989 184.588 41.4469 184.588 41.9589C184.588 42.4869 184.396 42.9429 184.012 43.3269C183.628 43.6949 183.172 43.8789 182.644 43.8789ZM198.588 41.4549C198.588 41.8229 198.596 42.1669 198.612 42.4869C198.628 42.7909 198.692 43.0709 198.804 43.3269V43.6389H195.516L195.372 41.9829C194.956 42.6229 194.372 43.1029 193.62 43.4229C192.884 43.7269 192.116 43.8789 191.316 43.8789C190.836 43.8789 190.356 43.8229 189.876 43.7109C189.412 43.5989 188.988 43.4149 188.604 43.1589C188.236 42.8869 187.94 42.5429 187.716 42.1269C187.492 41.7109 187.38 41.1989 187.38 40.5909C187.38 39.9189 187.516 39.3589 187.788 38.9109C188.06 38.4469 188.412 38.0629 188.844 37.7589C189.276 37.4549 189.764 37.2149 190.308 37.0389C190.852 36.8629 191.396 36.7189 191.94 36.6069L194.148 36.1029C194.468 36.0229 194.732 35.9269 194.94 35.8149C195.148 35.7029 195.252 35.5029 195.252 35.2149C195.252 34.6549 195.036 34.2549 194.604 34.0149C194.188 33.7749 193.7 33.6549 193.14 33.6549C192.468 33.6549 191.916 33.8149 191.484 34.1349C191.052 34.4389 190.772 34.8949 190.644 35.5029L187.452 35.0229C187.724 33.7269 188.364 32.7829 189.372 32.1909C190.38 31.5989 191.652 31.3029 193.188 31.3029C194.948 31.3029 196.284 31.6789 197.196 32.4309C198.124 33.1829 198.588 34.2869 198.588 35.7429V41.4549ZM192.3 41.5749C192.7 41.5749 193.084 41.4949 193.452 41.3349C193.836 41.1749 194.172 40.9429 194.46 40.6389C194.764 40.3189 195.004 39.9269 195.18 39.4629C195.356 38.9829 195.444 38.4309 195.444 37.8069L192.468 38.5749C192.004 38.6709 191.588 38.8469 191.22 39.1029C190.868 39.3429 190.692 39.7189 190.692 40.2309C190.692 40.6789 190.844 41.0149 191.148 41.2389C191.452 41.4629 191.836 41.5749 192.3 41.5749ZM203.113 29.6709C202.569 29.6709 202.105 29.4869 201.721 29.1189C201.353 28.7509 201.169 28.2949 201.169 27.7509C201.169 27.2229 201.353 26.7749 201.721 26.4069C202.105 26.0389 202.569 25.8549 203.113 25.8549C203.625 25.8549 204.065 26.0389 204.433 26.4069C204.817 26.7749 205.009 27.2229 205.009 27.7509C205.009 28.2949 204.817 28.7509 204.433 29.1189C204.065 29.4869 203.625 29.6709 203.113 29.6709ZM201.409 43.6389V31.5429H204.745V43.6389H201.409Z" fill="#4435F6"/>
</svg>
